# xmcd
#
# Track frame offsets:
#	150
#	23055
#	42173
#	62237
#	90464
#	114534
#	140007
#	163920
#	184654
#	207026
#	238907
#	270909
#
# Disc length: 3928 seconds
#
# Revision: 0
# Processed by: cddbd v1.5.2PL0 Copyright (c) Steve Scherf et al.
# Submitted via: EZCDAudioConverter 8.0.2.1
#
DISCID=a30f560c
DTITLE=Various Artist - st. Phạm Anh Cương. Tìm Lại Người Xưa
DYEAR=2011
DGENRE=
TTITLE0=Viết Thanh - Đường xưa lẻ bóng
TTITLE1=Tuấn Vũ - Về với nỗi buồn
TTITLE2=Ngọc Khánh - Mưa gọi tên anh
TTITLE3=Long Nhật - Tìm lại người xưa
TTITLE4=Viết Thanh - Ánh trăng đêm buồn
TTITLE5=Ban Trâm - Mong nhớ một người
TTITLE6=Viết Thanh - Làm bạn với cô đơn
TTITLE7=Long Nhật - Mưa nhiều nhớ Huế
TTITLE8=Viết Thanh - Xóm đạo vắng em
TTITLE9=Thu Hải - Cho vòng tay nhỏ lại
TTITLE10=Soundtrack - Cho vòng tay nhỏ lại
TTITLE11=Soundtrack - Ánh trăng đêm buồn
EXTD=
EXTT0=
EXTT1=
EXTT2=
EXTT3=
EXTT4=
EXTT5=
EXTT6=
EXTT7=
EXTT8=
EXTT9=
EXTT10=
EXTT11=
PLAYORDER=
